#!OML:ASF E:\emotionWalksFemale\Project 1\Capture day 1\Session 1\Female1.ASF
:FULLY-SPECIFIED
:DEGREES
1562
root 10.1758 15.2801 4.14917 -357.391 -2.05614 -3.6
lowerback 6.87838 1.90317 3.33047
upperback -3.52573 2.55309 -4.88333
thorax -7.22273 0.959385 -7.41043
lowerneck -7.7827 -4.0068 -9.91106
upperneck 12.898 -5.94524 12.7201
head 5.8343 -2.5456 5.23936
rclavicle -4.5969e-015 -9.54166e-015
rhumerus -41.3386 55.1037 -130.085
rradius 44.2597
rwrist -3.17268
rhand 3.01445 -61.5572
rfingers 7.12502
rthumb 28.4744 -809.41
lclavicle -4.5969e-015 -9.54166e-015
lhumerus -57.7538 -65.047 144.688
lradius 105.972
lwrist 31.5296
lhand 18.5981 -24.9867
lfingers 7.12502
lthumb 43.2269 -0.821439
rfemur 10.4784 3.48187 31.6641
rtibia 33.4205
rfoot 3.83838 -2.8403
rtoes 3.20185
lfemur -31.2797 -14.1429 -16.3016
ltibia 32.0391
lfoot -10.0985 12.1281
ltoes -8.828
1563
root 10.195 15.297 4.2834 -357.476 -2.11095 -3.58223
lowerback 7.21155 1.89616 3.33901
upperback -3.6269 2.55015 -4.8329
thorax -7.52726 0.944203 -7.38625
lowerneck -7.78674 -3.92632 -9.92608
upperneck 12.7973 -5.81166 12.6482
head 5.786 -2.48709 5.22841
rclavicle 3.26255e-014 -3.49861e-014
rhumerus -41.052 54.608 -129.602
rradius 43.5465
rwrist -2.76454
rhand 3.6086 -61.6342
rfingers 7.12502
rthumb 29.042 -809.391
lclavicle 3.26255e-014 -3.49861e-014
lhumerus -57.8681 -64.8883 144.824
lradius 105.929
lwrist 31.4701
lhand 19.1214 -25.1874
lfingers 7.12502
lthumb 43.7157 -1.1993
rfemur 9.19659 3.30726 31.2997
rtibia 36.1558
rfoot 5.55952 -2.22128
rtoes 3.21455
lfemur -30.6249 -13.537 -16.8134
ltibia 32.1471
lfoot -9.67543 11.6162
ltoes -11.9666
1564
root 10.2194 15.3106 4.41454 -357.558 -2.18615 -3.46821
lowerback 7.02231 1.85732 3.26446
upperback -3.34634 2.4953 -4.79242
thorax -7.12752 0.944085 -7.26569
lowerneck -8.10314 -3.87992 -9.94103
upperneck 12.4583 -5.68422 12.6122
head 5.72107 -2.42142 5.22177
rclavicle -2.75317e-014 1.59028e-014
rhumerus -40.1773 54.8721 -128.676
rradius 43.0233
rwrist -2.88035
rhand 4.20936 -62.0348
rfingers 7.12502
rthumb 29.6156 -809.691
lclavicle -2.75317e-014 1.59028e-014
lhumerus -56.7328 -65.0469 143.818
lradius 105.864
lwrist 31.5219
lhand 19.4545 -25.2178
lfingers 7.12502
lthumb 44.0266 -1.34486
rfemur 7.78571 3.10061 30.7615
rtibia 39.087
rfoot 7.11228 -1.44838
rtoes 3.80002
lfemur -29.9207 -13.1207 -17.4029
ltibia 32.1515
lfoot -9.40988 11.3742
ltoes -15.0001
1565
root 10.2438 15.3304 4.54938 -357.623 -2.37691 -3.25128
lowerback 7.41314 1.88013 3.15878
upperback -3.53649 2.50965 -4.87621
thorax -7.55779 0.932685 -7.33206
lowerneck -7.89079 -3.86284 -9.76029
upperneck 12.4043 -5.6733 12.4466
head 5.6562 -2.42618 5.13929
rclavicle -2.37051e-014 -3.18055e-015
rhumerus -39.9359 54.1361 -128.361
rradius 42.4797
rwrist -2.50427
rhand 5.02622 -62.1379
rfingers 7.12502
rthumb 30.395 -809.653
lclavicle -2.37051e-014 -3.18055e-015
lhumerus -57.2655 -64.8053 144.254
lradius 105.913
lwrist 31.5525
lhand 19.3299 -25.0958
lfingers 7.12502
lthumb 43.9103 -1.1796
rfemur 6.28559 2.89791 30.0702
rtibia 42.1088
rfoot 8.57285 -0.643911
rtoes 4.84689
lfemur -29.1864 -12.8004 -18.0121
ltibia 32.0644
lfoot -9.45723 11.2518
ltoes -15.033
1566
root 10.2652 15.3509 4.6801 -357.695 -2.56417 -2.94162
lowerback 7.63575 1.90254 2.86404
upperback -3.5645 2.50384 -4.9383
thorax -7.72683 0.9357 -7.24447
lowerneck -7.74917 -3.9401 -9.49415
upperneck 12.1332 -5.74986 12.0811
head 5.53943 -2.48246 4.96642
rclavicle 3.78685e-014 -2.70347e-014
rhumerus -39.3146 53.5874 -127.682
rradius 41.9336
rwrist -1.88401
rhand 5.92209 -62.1565
rfingers 7.12502
rthumb 31.2491 -809.51
lclavicle 3.78685e-014 -2.70347e-014
lhumerus -57.2791 -64.974 144.327
lradius 105.945
lwrist 31.5932
lhand 19.417 -25.2049
lfingers 7.12502
lthumb 43.9916 -1.31884
rfemur 4.68328 2.67391 29.3265
rtibia 45.1132
rfoot 9.88261 0.127403
rtoes 5.07064
lfemur -28.4712 -12.5392 -18.6802
ltibia 31.923
lfoot -9.40744 11.3247
ltoes -16.2656
1567
root 10.2831 15.3761 4.80641 -357.89 -2.85864 -2.66429
lowerback 7.82108 1.96358 2.50502
upperback -3.39501 2.55025 -4.92901
thorax -7.65848 0.982977 -7.03545
lowerneck -8.15539 -3.88214 -9.58325
upperneck 12.1255 -5.6254 12.075
head 5.59587 -2.41286 4.9849
rclavicle 1.00138e-014 -1.11319e-014
rhumerus -38.6336 53.6601 -126.86
rradius 41.5711
rwrist -1.71978
rhand 6.06746 -62.4481
rfingers 7.12502
rthumb 31.3876 -809.775
lclavicle 1.00138e-014 -1.11319e-014
lhumerus -56.6796 -65.4858 143.979
lradius 105.96
lwrist 31.8047
lhand 19.7067 -25.1186
lfingers 7.12502
lthumb 44.2618 -1.33407
rfemur 3.13703 2.61847 28.6927
rtibia 48.0502
rfoot 11.4874 0.761811
rtoes 6.93539
lfemur -27.6578 -12.3784 -19.2194
ltibia 31.7486
lfoot -9.71606 11.3632
ltoes -13.4991
1568
root 10.3008 15.4011 4.92607 -358.076 -3.19774 -2.29659
lowerback 8.03745 2.01983 2.07775
upperback -3.2504 2.5774 -4.96602
thorax -7.63954 1.01987 -6.83901
lowerneck -8.10313 -3.82482 -9.72289
upperneck 11.7702 -5.51866 12.2028
head 5.47257 -2.36503 5.05598
rclavicle 7.66563e-015 -4.13472e-014
rhumerus -38.0033 53.6768 -126.127
rradius 41.266
rwrist -1.5863
rhand 5.91619 -62.4481
rfingers 7.12502
rthumb 31.2435 -809.803
lclavicle 7.66563e-015 -4.13472e-014
lhumerus -56.1788 -65.7986 143.629
lradius 105.797
lwrist 32.0569
lhand 20.2092 -25.3911
lfingers 7.12502
lthumb 44.7299 -1.78592
rfemur 1.59032 2.64807 27.9579
rtibia 50.904
rfoot 13.1616 0.879669
rtoes 10.6509
lfemur -26.8168 -12.2316 -19.8486
ltibia 31.5254
lfoot -10.2394 11.3337
ltoes -9.17015
1569
root 10.3157 15.4105 5.04438 -358.177 -3.39919 -1.93698
lowerback 8.30916 2.024 1.69368
upperback -3.2336 2.52971 -5.06284
thorax -7.79692 1.00754 -6.73367
lowerneck -8.77743 -3.56938 -9.83253
upperneck 12.1961 -5.19506 12.6154
head 5.69645 -2.15821 5.23622
rclavicle -3.47873e-016 6.36111e-015
rhumerus -37.3148 53.1319 -125.464
rradius 40.9342
rwrist -1.09674
rhand 6.12938 -62.1918
rfingers 7.12502
rthumb 31.4466 -809.507
lclavicle -3.47873e-016 6.36111e-015
lhumerus -56.1236 -66.0204 143.627
lradius 105.739
lwrist 32.4788
lhand 20.7015 -25.5555
lfingers 7.12502
lthumb 45.188 -2.13037
rfemur -0.0361037 2.65042 27.3444
rtibia 53.6462
rfoot 14.0305 0.170982
rtoes 13.8561
lfemur -26.0539 -11.8128 -20.58
ltibia 31.2931
lfoot -10.2012 11.3821
ltoes -12.8415
1570
root 10.326 15.4135 5.15893 -358.309 -3.31302 -1.57428
lowerback 8.74188 1.91606 1.2181
upperback -3.25694 2.31812 -5.10369
thorax -8.11664 0.915784 -6.50355
lowerneck -8.7472 -3.70038 -9.62877
upperneck 12.0146 -5.34998 12.3261
head 5.64095 -2.2465 5.09069
rclavicle -3.80921e-014 1.90833e-014
rhumerus -37.0177 52.6792 -125.157
rradius 40.7996
rwrist -0.912374
rhand 5.53819 -62.7132
rfingers 7.12502
rthumb 30.8832 -629.863
lclavicle -3.80921e-014 1.90833e-014
lhumerus -55.961 -66.2297 143.634
lradius 105.761
lwrist 33.1291
lhand 21.216 -25.3796
lfingers 7.12502
lthumb 45.6661 -2.14734
rfemur -1.548 2.28079 26.7893
rtibia 56.2233
rfoot 14.0198 -0.9182
rtoes 15.8821
lfemur -25.2798 -11.217 -21.3554
ltibia 31.0619
lfoot -10.2307 11.0654
ltoes -17.1693
1571
root 10.3374 15.4234 5.27223 -358.478 -3.1578 -1.23427
lowerback 9.11538 1.77296 0.788974
upperback -3.22498 2.06576 -5.11132
thorax -8.34358 0.807921 -6.24844
lowerneck -8.62281 -3.74698 -9.67403
upperneck 11.8426 -5.37161 12.109
head 5.56424 -2.27933 5.0245
rclavicle -9.77772e-015 9.54166e-015
rhumerus -36.7524 52.3287 -124.829
rradius 40.6919
rwrist -0.822513
rhand 4.40782 -63.1625
rfingers 7.12502
rthumb 29.805 -629.215
lclavicle -9.77772e-015 9.54166e-015
lhumerus -55.3078 -66.5454 143.222
lradius 105.605
lwrist 33.9796
lhand 21.9883 -25.5035
lfingers 7.12502
lthumb 46.3827 -2.57
rfemur -2.95655 1.65442 26.2484
rtibia 58.5909
rfoot 13.0592 -2.20182
rtoes 11.4324
lfemur -24.5367 -10.7755 -22.0256
ltibia 30.8547
lfoot -10.5924 10.6636
ltoes -17.8846
1572
root 10.3546 15.4397 5.39671 -358.508 -3.2379 -0.841695
lowerback 8.96919 1.72442 0.438289
upperback -3.14032 1.95424 -5.21754
thorax -8.18727 0.774043 -6.13292
lowerneck -8.66975 -3.57528 -9.62229
upperneck 11.9141 -5.17053 12.2867
head 5.57413 -2.16526 5.09163
rclavicle 3.51725e-014 6.36111e-015
rhumerus -36.01 51.6709 -124.082
rradius 40.3603
rwrist -0.0675826
rhand 4.46052 -62.4732
rfingers 7.12502
rthumb 29.8553 -629.913
lclavicle 3.51725e-014 6.36111e-015
lhumerus -54.6596 -67.0728 142.818
lradius 105.435
lwrist 34.8546
lhand 23.0196 -25.6063
lfingers 7.12502
lthumb 47.337 -3.08993
rfemur -4.48435 1.20964 25.6108
rtibia 60.7582
rfoot 11.8501 -3.51823
rtoes 6.41527
lfemur -23.985 -10.6126 -22.6768
ltibia 30.7086
lfoot -10.9432 10.6843
ltoes -17.8692
